<?xml version="1.0" encoding="iso-8859-1"?>
<!-- Generator: Adobe Illustrator 19.0.0, SVG Export Plug-In . SVG Version: 6.00 Build 0)  -->
<svg version="1.1" id="Capa_1" xmlns="http://www.w3.org/2000/svg" xmlns:xlink="http://www.w3.org/1999/xlink" x="0px" y="0px"
	 viewBox="0 0 512 512" style="enable-background:new 0 0 512 512;" xml:space="preserve">
<path style="fill:#ACABB1;" d="M504.5,256c0,137.24-111.26,248.5-248.5,248.5c-1.22,0-2.44-0.01-3.65-0.03
	c-20.02-0.29-39.47-2.94-58.08-7.7c-18.22-4.65-35.63-11.33-51.98-19.77C62.24,435.74,7.5,352.26,7.5,256S62.24,76.26,142.29,35
	c16.35-8.44,33.76-15.12,51.98-19.77c18.61-4.76,38.06-7.41,58.08-7.7c1.21-0.02,2.43-0.03,3.65-0.03
	C393.24,7.5,504.5,118.76,504.5,256z"/>
<path style="fill:#C6C5CB;" d="M381.02,256c0,115.92-79.38,213.31-186.75,240.77c-18.22-4.65-35.63-11.33-51.98-19.77
	C62.24,435.74,7.5,352.26,7.5,256S62.24,76.26,142.29,35c16.35-8.44,33.76-15.12,51.98-19.77C301.64,42.69,381.02,140.08,381.02,256
	z"/>
<polygon style="fill:#C60024;" points="355.68,119.062 122.102,119.062 122.102,352.639 156.314,392.931 389.892,392.931 
	389.892,159.354 "/>
<rect x="122.1" y="119.06" style="fill:#FE0B37;" width="233.58" height="233.58"/>
<polygon style="fill:#C60024;" points="355.68,119.06 355.68,352.64 291.74,352.64 291.74,174.66 122.1,174.66 122.1,119.06 "/>
<g>
	<path style="fill:#020202;" d="M437.02,74.98C388.668,26.629,324.38,0,256,0S123.332,26.629,74.98,74.98
		C26.629,123.332,0,187.62,0,256s26.629,132.668,74.98,181.02C123.332,485.371,187.62,512,256,512s132.668-26.629,181.02-74.98
		C485.371,388.668,512,324.38,512,256S485.371,123.332,437.02,74.98z M256,497C123.112,497,15,388.888,15,256S123.112,15,256,15
		s241,108.112,241,241S388.888,497,256,497z"/>
	<path style="fill:#020202;" d="M397.392,156.599l-38.241-45.037h-3.471H114.602v241.077v2.755l38.241,45.038h244.548V156.599
		H397.392z M348.18,126.562v218.577H129.602V126.562H348.18z M382.392,385.432H159.785l-21.476-25.293H363.18V139.482l19.212,22.626
		V385.432z"/>
</g>
<g>
	<polygon style="fill:#FFFFFF;" points="335.116,262.572 320.116,262.572 320.116,317.076 288.454,317.076 288.454,332.076 
		335.116,332.076 	"/>
	<rect x="244.61" y="317.08" style="fill:#FFFFFF;" width="18.914" height="15"/>
</g>
<polygon style="fill:#020202;" points="175.835,317.076 157.665,317.076 157.665,303.835 142.665,303.835 142.665,332.076 
	175.835,332.076 "/>
<g>
	<rect x="142.66" y="212.71" style="fill:#FFFFFF;" width="15" height="17.193"/>
	<polygon style="fill:#FFFFFF;" points="157.665,154.625 210.224,154.625 210.224,139.625 142.665,139.625 142.665,189.497 
		157.665,189.497 	"/>
	<rect x="236.87" y="139.62" style="fill:#FFFFFF;" width="15.474" height="15"/>
	<path style="fill:#FFFFFF;" d="M419.342,92.657c-21.19-21.189-45.734-37.8-72.95-49.37l-5.869,13.805
		c25.438,10.815,48.389,26.349,68.212,46.173c19.881,19.88,35.445,42.9,46.262,68.421l13.811-5.854
		C457.234,138.528,440.592,113.908,419.342,92.657z"/>
	<path style="fill:#FFFFFF;" d="M478.438,193.317l-14.443,4.047c1.988,7.098,3.63,14.395,4.88,21.688l14.785-2.533
		C482.321,208.717,480.565,200.911,478.438,193.317z"/>
</g>
<path style="fill:#020202;" d="M326.172,460.406l4.857,14.191c30.56-10.46,58.177-27.031,82.086-49.254l-10.211-10.986
	C380.545,435.139,354.728,450.632,326.172,460.406z"/>
<g>
	<path style="fill:#FFFFFF;" d="M48.383,196.036l-14.417-4.141C28.017,212.612,25,234.18,25,256
		c0,60.473,23.192,117.635,65.305,160.955l10.756-10.455C61.685,365.995,40,312.546,40,256
		C40,235.581,42.821,215.406,48.383,196.036z"/>
	<path style="fill:#FFFFFF;" d="M67.852,149.702l-13.048-7.398c-3.341,5.892-6.453,11.999-9.25,18.152l13.656,6.207
		C61.823,160.913,64.73,155.207,67.852,149.702z"/>
</g>
<g>
</g>
<g>
</g>
<g>
</g>
<g>
</g>
<g>
</g>
<g>
</g>
<g>
</g>
<g>
</g>
<g>
</g>
<g>
</g>
<g>
</g>
<g>
</g>
<g>
</g>
<g>
</g>
<g>
</g>
</svg>
